<svg id="Laag_1" data-name="Laag 1" xmlns="http://www.w3.org/2000/svg" xmlns:xlink="http://www.w3.org/1999/xlink" viewBox="0 0 436.54 612.28"><defs><style>.cls-1,.cls-20{fill:none;}.cls-2{fill:#e5f2ba;}.cls-3{font-size:32px;}.cls-24,.cls-3,.cls-31,.cls-38,.cls-6{fill:#3b4349;font-family:Calibri-Bold, Calibri;font-weight:700;}.cls-4{letter-spacing:-0.01em;}.cls-5{letter-spacing:-0.01em;}.cls-6{font-size:24px;}.cls-7{letter-spacing:-0.03em;}.cls-8{letter-spacing:-0.01em;}.cls-9{letter-spacing:-0.01em;}.cls-10{letter-spacing:-0.02em;}.cls-11{letter-spacing:-0.01em;}.cls-12{clip-path:url(#clip-path);}.cls-13{fill:#414e51;}.cls-14{clip-path:url(#clip-path-2);}.cls-15{clip-path:url(#clip-path-3);}.cls-16{clip-path:url(#clip-path-4);}.cls-17{clip-path:url(#clip-path-5);}.cls-18{clip-path:url(#clip-path-6);}.cls-19{clip-path:url(#clip-path-7);}.cls-20{stroke:#414e51;stroke-miterlimit:10;stroke-width:1.07px;}.cls-21{clip-path:url(#clip-path-8);}.cls-22{clip-path:url(#clip-path-9);}.cls-23{clip-path:url(#clip-path-10);}.cls-24{font-size:18px;}.cls-25{letter-spacing:-0.03em;}.cls-26{letter-spacing:-0.01em;}.cls-27{letter-spacing:-0.01em;}.cls-28{letter-spacing:0em;}.cls-29{letter-spacing:-0.01em;}.cls-30{letter-spacing:-0.02em;}.cls-31{font-size:22px;}.cls-32{letter-spacing:0em;}.cls-33{letter-spacing:-0.01em;}.cls-34{letter-spacing:-0.01em;}.cls-35{letter-spacing:-0.02em;}.cls-36{letter-spacing:-0.01em;}.cls-37{letter-spacing:-0.01em;}.cls-38{font-size:12px;}.cls-39{letter-spacing:-0.01em;}.cls-40{letter-spacing:-0.02em;}.cls-41{letter-spacing:-0.01em;}.cls-42{letter-spacing:-0.01em;}.cls-43{letter-spacing:-0.01em;}.cls-44{letter-spacing:-0.01em;}.cls-45{letter-spacing:-0.01em;}.cls-46{letter-spacing:-0.02em;}.cls-47{letter-spacing:-0.01em;}.cls-48{letter-spacing:-0.01em;}.cls-49{letter-spacing:-0.01em;}.cls-50{letter-spacing:-0.01em;}.cls-51{letter-spacing:-0.02em;}.cls-52{letter-spacing:-0.01em;}.cls-53{letter-spacing:-0.01em;}.cls-54{letter-spacing:-0.01em;}.cls-55{letter-spacing:-0.02em;}.cls-56{letter-spacing:-0.03em;}.cls-57{letter-spacing:0.01em;}.cls-58{letter-spacing:-0.03em;}.cls-59{letter-spacing:-0.01em;}.cls-60{letter-spacing:-0.02em;}.cls-61{letter-spacing:-0.06em;}</style><clipPath id="clip-path"><rect class="cls-1" x="88.72" y="91.28" width="90.14" height="90.14"/></clipPath><clipPath id="clip-path-2"><rect class="cls-1" x="54.42" y="479.34" width="100.91" height="100.91"/></clipPath><clipPath id="clip-path-3"><rect class="cls-1" x="38.55" y="188.79" width="100.91" height="104.88"/></clipPath><clipPath id="clip-path-4"><rect class="cls-1" x="19.27" y="362.13" width="96.95" height="102.61"/></clipPath><clipPath id="clip-path-5"><rect class="cls-1" x="172.91" y="188.79" width="100.91" height="104.88"/></clipPath><clipPath id="clip-path-6"><rect class="cls-1" x="178.58" y="360" width="100.91" height="104.88"/></clipPath><clipPath id="clip-path-7"><rect class="cls-1" x="312.66" y="198.42" width="85.61" height="85.61"/></clipPath><clipPath id="clip-path-8"><rect class="cls-1" x="326.27" y="361.13" width="85.61" height="85.61"/></clipPath><clipPath id="clip-path-9"><rect class="cls-1" x="269.58" y="90.71" width="91.27" height="91.28"/></clipPath><clipPath id="clip-path-10"><rect class="cls-1" x="288.85" y="471.69" width="91.27" height="91.28"/></clipPath></defs><title>Signaleringskaart-voorzijde</title><rect class="cls-2" width="436.54" height="612.28"/><text class="cls-3" transform="translate(44.44 41.01)">Signalerings<tspan class="cls-4" x="159.44" y="0">k</tspan><tspan x="174.38" y="0">aart oude</tspan><tspan class="cls-5" x="303.33" y="0">r</tspan><tspan x="314.33" y="0">en</tspan></text><text class="cls-6" transform="translate(67.24 69.81)"><tspan class="cls-7">W</tspan><tspan x="20.91" y="0">e</tspan><tspan class="cls-8" x="32.99" y="0">e</tspan><tspan x="44.93" y="0">t </tspan><tspan class="cls-9" x="58.68" y="0">w</tspan><tspan x="76.29" y="0">anneer u hulp v</tspan><tspan class="cls-10" x="231.64" y="0">r</tspan><tspan x="239.62" y="0">aa</tspan><tspan class="cls-11" x="263.31" y="0">g</tspan><tspan x="274.5" y="0">t...</tspan></text><g class="cls-12"><path class="cls-13" d="M147,109.27a3.08,3.08,0,0,1,.27-2.34,3.16,3.16,0,0,1,1.52-1.35,6.92,6.92,0,1,0,2.37,7.13c-.77-.49-1.65-1-2.69-1.59a3.09,3.09,0,0,1-1.47-1.85"/><path class="cls-13" d="M117.68,104.06a6.92,6.92,0,1,1-6.92,6.92,6.92,6.92,0,0,1,6.92-6.92"/><path class="cls-13" d="M161,103.14a.31.31,0,0,0,.22-.09.31.31,0,0,0,0-.44l-5.05-5a.31.31,0,0,0-.44,0,.3.3,0,0,0,0,.44l5,5a.29.29,0,0,0,.21.09"/><path class="cls-13" d="M152.81,100.53a.31.31,0,0,0,0,.44l5.06,5a.33.33,0,0,0,.21.09.32.32,0,0,0,.22-.1.3.3,0,0,0,0-.43l-5.05-5a.31.31,0,0,0-.44,0"/><path class="cls-13" d="M150.71,95.71a.32.32,0,0,0,0,.44l12.07,11.48a.34.34,0,0,0,.21.08.31.31,0,0,0,.22-.09.3.3,0,0,0,0-.44L151.15,95.7a.31.31,0,0,0-.44,0"/><path class="cls-13" d="M132,152.83l-6-9.56c0-.07,0-.14,0-.21V124.18a23.87,23.87,0,0,0,2.73-.77,12.78,12.78,0,0,0,3.74-2,6.73,6.73,0,0,0,1.58-1.79,5.27,5.27,0,0,0,.71-2.61,6.07,6.07,0,0,0-.75-2.82,13.13,13.13,0,0,0-3.37-3.84,41.62,41.62,0,0,0-6.26-4.12,2.48,2.48,0,0,0-1.07-.31,7.55,7.55,0,0,1,1.9,5,7.75,7.75,0,0,1-.14,1.45,21.86,21.86,0,0,1,3.49,2.71,6,6,0,0,1,1.1,1.4,1.13,1.13,0,0,1,.17.52s0,0,0,.13a2.88,2.88,0,0,1-1.09.88,14.19,14.19,0,0,1-3.51,1.25c-.57.13-1.08.22-1.43.28l-.32.05H111.61a5.9,5.9,0,0,0-2.51.65c-1.66.82-3.44,2.62-4.69,5.8s-2.11,7.81-2.11,14.78c0,1.8,0,3.76.18,5.89a2.46,2.46,0,0,0,2.45,2.32h.15a2.45,2.45,0,0,0,2.31-2.6c-.12-2-.17-3.91-.17-5.6,0-7.45,1.07-11.64,2.14-13.82v46.14a3.81,3.81,0,0,0,7.61,0V145.44h1.31l6,9.65-6.63,13.35a3.84,3.84,0,0,0,1.73,5.15,3.74,3.74,0,0,0,1.71.41,3.85,3.85,0,0,0,3.44-2.14l7.59-15.28a3.83,3.83,0,0,0-.18-3.75"/><path class="cls-13" d="M124.79,101.25a.62.62,0,0,0,.62.62.61.61,0,0,0,.61-.62V94.08h38.89v76.69h-13l7-14.19a3.83,3.83,0,0,0-.18-3.75l-6-9.56c0-.07,0-.14,0-.21V124.18a23.87,23.87,0,0,0,2.73-.77,12.78,12.78,0,0,0,3.74-2,6.9,6.9,0,0,0,1.58-1.79,5.24,5.24,0,0,0,.71-2.61,6.07,6.07,0,0,0-.75-2.82,13.13,13.13,0,0,0-3.37-3.84,42.68,42.68,0,0,0-6.26-4.12,2.46,2.46,0,1,0-2.39,4.3,30.32,30.32,0,0,1,6.57,4.56,6.25,6.25,0,0,1,1.1,1.39,1.15,1.15,0,0,1,.17.53s0,0,0,.13a2.88,2.88,0,0,1-1.09.88,14.19,14.19,0,0,1-3.51,1.25c-.57.13-1.08.22-1.43.28l-.32.05H138.37a5.9,5.9,0,0,0-2.51.65c-1.66.82-3.44,2.62-4.69,5.8s-2.11,7.81-2.11,14.78c0,1.8.05,3.76.18,5.89a2.46,2.46,0,0,0,2.45,2.32h.15a2.45,2.45,0,0,0,2.31-2.6c-.12-2-.17-3.91-.17-5.6,0-7.45,1.07-11.64,2.14-13.82v43.7H134a.61.61,0,0,0-.61.51s0,.07,0,.1a.62.62,0,0,0,.62.62h32.14V92.84H124.79Zm18.93,44.19H145l6,9.65-6.63,13.35a3.81,3.81,0,0,0-.35,2.33h-.38Z"/></g><g class="cls-14"><path class="cls-13" d="M96.41,524l-2.72-5.23a5.38,5.38,0,0,0-4.69-3H77.47A10.1,10.1,0,0,0,73,516.89l-1.28.66a2.55,2.55,0,0,0-2.41-1.72H63a2.49,2.49,0,0,0-2.48,2.55v17.9A2.49,2.49,0,0,0,63,538.83h7.4c3.93,0,6.57,6.63,8.18,11.64a3.46,3.46,0,0,0,6.79-.94,24.38,24.38,0,0,0-1.54-10,.45.45,0,0,1,.06-.45.42.42,0,0,1,.32-.2H93a4.3,4.3,0,0,0,4.49-4.13v-6.91a8.74,8.74,0,0,0-1-3.82M68.28,537.06H63a.7.7,0,0,1-.69-.76V518.38a.7.7,0,0,1,.69-.76h6.28a.83.83,0,0,1,.85.76v.23a.46.46,0,0,0,0,.71v17a.83.83,0,0,1-.85.76h-1Zm27.35-2.34a2.5,2.5,0,0,1-2.7,2.34H84.21a2.21,2.21,0,0,0-1.81,1,2.24,2.24,0,0,0-.2,2.14,22.21,22.21,0,0,1,1.41,9.3,1.72,1.72,0,0,1-1.7,1.7A1.82,1.82,0,0,1,80.3,550c-1.78-5.47-4.29-11.66-8.58-12.71a2.65,2.65,0,0,0,.23-.92V519.48l1.87-1a8.33,8.33,0,0,1,3.65-.9H89a3.58,3.58,0,0,1,3.08,2l2.75,5.23a6.69,6.69,0,0,1,.8,3Z"/><path class="cls-13" d="M66,531.16a1.77,1.77,0,0,0-1.76,1.77A1.77,1.77,0,1,0,66,531.16m0,2.64a.87.87,0,0,1-.87-.87.88.88,0,0,1,.87-.87.87.87,0,0,1,0,1.74"/><path class="cls-13" d="M139.64,511.82a10,10,0,1,0,10,10,10,10,0,0,0-10-10m0,16.69A6.67,6.67,0,0,1,134.21,518l9.29,9.3a6.61,6.61,0,0,1-3.86,1.24m5.44-2.81-9.3-9.3a6.61,6.61,0,0,1,3.86-1.24,6.69,6.69,0,0,1,6.68,6.68,6.61,6.61,0,0,1-1.24,3.86"/><path class="cls-13" d="M128.41,551.87a7.79,7.79,0,0,0,5.5-13.29l-11-11a7.79,7.79,0,0,0-11,11l11,11a7.75,7.75,0,0,0,5.51,2.28m-14.16-15.65a4.45,4.45,0,1,1,6.29-6.29l4.77,4.77L119,541Zm12.64.06,4.66,4.66a4.45,4.45,0,0,1-6.29,6.29l-4.67-4.66Z"/></g><polygon class="cls-13" points="99.02 244.9 99.02 258.39 130.13 258.39 136.88 251.64 130.13 244.9 99.02 244.9"/><polygon class="cls-13" points="89.36 227.06 82.61 233.81 89.36 240.55 120.48 240.55 120.48 227.06 89.36 227.06"/><rect class="cls-13" x="107.58" y="222.72" width="4.34" height="58.61"/><g class="cls-15"><path class="cls-13" d="M52.21,208.49a5.16,5.16,0,0,0-2.5.59,4.35,4.35,0,0,0-1.63,1.48,3.31,3.31,0,0,0-.56,1.76,1.12,1.12,0,0,0,.35.78,1.19,1.19,0,0,0,.87.36,1.2,1.2,0,0,0,1.18-1,4,4,0,0,1,.81-1.5,1.94,1.94,0,0,1,1.48-.51,2,2,0,0,1,1.4.5,1.61,1.61,0,0,1,.55,1.24,1.43,1.43,0,0,1-.18.7,2.47,2.47,0,0,1-.44.58c-.17.17-.45.43-.84.77a12,12,0,0,0-1.06,1,3.19,3.19,0,0,0-.64,1,3.5,3.5,0,0,0-.23,1.32,1.22,1.22,0,0,0,.32.93,1.14,1.14,0,0,0,.8.31,1,1,0,0,0,1.09-.95l.15-.63a1.51,1.51,0,0,1,.14-.35,2.69,2.69,0,0,1,.28-.4c.13-.14.29-.31.5-.5.75-.67,1.27-1.15,1.56-1.43a4.09,4.09,0,0,0,.75-1,2.86,2.86,0,0,0,.32-1.37,3.26,3.26,0,0,0-.56-1.83A3.86,3.86,0,0,0,54.56,209a5.31,5.31,0,0,0-2.35-.49M52,219.61a1.34,1.34,0,0,0-1,.4,1.32,1.32,0,0,0-.4,1,1.29,1.29,0,0,0,.41,1,1.47,1.47,0,0,0,1,.36,1.35,1.35,0,0,0,.95-.37,1.26,1.26,0,0,0,.42-1A1.37,1.37,0,0,0,52,219.61m6.81,5.29a9.49,9.49,0,0,0-1.81.18,1.88,1.88,0,0,0-1.52,1.65,4.82,4.82,0,0,0-3.38-1.38,4.77,4.77,0,1,0,4.79,4.76,4.92,4.92,0,0,0-.22-1.44,1.92,1.92,0,0,0,1.09.08A4.26,4.26,0,0,1,63,232a2.51,2.51,0,0,1-.8,2.43c-.77.72-2.32,1.42-5.09,1.42H47.35a6.59,6.59,0,0,0-5.26,2.44,11.12,11.12,0,0,0-2,5.36c-.58,4-.23,8.86-.23,13.34a1.88,1.88,0,1,0,3.75,0c0-4.66-.3-9.46.18-12.8a8.15,8.15,0,0,1,1.22-3.6,2.89,2.89,0,0,1,.58-.58v41.13a2.68,2.68,0,1,0,5.35,0V259.24a.9.9,0,0,1,.9-.9h.44a.9.9,0,0,1,.91.9v21.93a2.67,2.67,0,1,0,5.34,0V239.56a10,10,0,0,0,6.18-2.36,6.47,6.47,0,0,0,1.94-5.79,8,8,0,0,0-7.89-6.51Z"/></g><g class="cls-16"><path class="cls-13" d="M79.16,374.92a2.69,2.69,0,0,0-1,3.67,12.34,12.34,0,0,1,.3,12,14.92,14.92,0,0,1-7.54,6.91c-13.4,2.26-22.38,7.83-23.5,14.62-.59,3.6.7,8.95,10.25,13.95a2.82,2.82,0,0,0,.61.23c-.6,9.14-3.06,19.76-10,28.37a4.21,4.21,0,0,0,6.56,5.28c7.92-9.84,10.92-21.56,11.77-31.76,1.22.18,2.46.33,3.61.44,1,9.87,1.09,20.52-1.6,27.79a4.21,4.21,0,0,0,2.49,5.41,4.14,4.14,0,0,0,1.46.27,4.21,4.21,0,0,0,4-2.75c6.74-18.19-.92-51.57-2.35-57.43A20.38,20.38,0,0,0,83.23,393a17.57,17.57,0,0,0-.4-17.09,2.69,2.69,0,0,0-3.67-1m-13,30.44a2.85,2.85,0,0,1-1.93-.26.8.8,0,0,0-.13-.13c0-.89,0-1.78,0-2.68l1.24-.34,1.23-.34c.45.82.88,1.64,1.29,2.48l-.06.19a2.62,2.62,0,0,1-1.62,1.08M52.71,413c.27-1.62,1.76-3.49,4.52-5.23A79.9,79.9,0,0,1,58.4,420.3c-4-2.43-6.06-5-5.69-7.32m15.1,11.56c-1-1.46-2-2.87-3.13-4.21A70.07,70.07,0,0,0,65,406.42a3.81,3.81,0,0,0,1.39,0h0a3.54,3.54,0,0,0,1.27-.53,74.18,74.18,0,0,1,3.43,14.39q-1.58,2.24-3.27,4.28"/><path class="cls-13" d="M60.55,382.82a7.58,7.58,0,1,0,8,7.12,7.57,7.57,0,0,0-8-7.12m6,9.49c.34,1.32-1.24,2.86-3.53,3.44s-4.41,0-4.74-1.35,1.85-.47,4.14-1,3.8-2.37,4.13-1.05"/><polygon class="cls-13" points="61.47 379.38 62.18 379.37 65.58 363.87 63.57 363.25 61.47 379.38"/><polygon class="cls-13" points="52.58 365.14 58.35 379.68 58.96 379.3 53.85 364.28 52.58 365.14"/><polygon class="cls-13" points="75.33 368.37 73.92 367.75 64.65 380.35 65.29 380.66 75.33 368.37"/></g><g class="cls-17"><path class="cls-13" d="M185.22,235.47a2.78,2.78,0,1,0,2.77,2.78,2.79,2.79,0,0,0-2.77-2.78m0,4.65a2,2,0,0,1-.8-.18,2,2,0,0,0,0-3.38,1.8,1.8,0,0,1,.8-.18,1.87,1.87,0,1,1,0,3.74m10.22-4.65a2.78,2.78,0,1,0,2.78,2.78,2.78,2.78,0,0,0-2.78-2.78m0,4.65a1.91,1.91,0,0,1-.79-.18,2,2,0,0,0,0-3.38,1.76,1.76,0,0,1,.79-.18,1.87,1.87,0,1,1,0,3.74m-5.85,4.68a.54.54,0,0,1-.34-1l1.18-1,1.11,1a.54.54,0,1,1-.71.81l-.43-.37-.47.38a.5.5,0,0,1-.34.13m-4.68-10.15a4.22,4.22,0,0,1-3-1.65.73.73,0,0,1,.14-1,.72.72,0,0,1,1,.14,2.76,2.76,0,0,0,1.82,1.08h0a2.18,2.18,0,0,0,1.61-1.07.72.72,0,0,1,1.16.85,3.49,3.49,0,0,1-2.76,1.66Zm11.18,0a4.22,4.22,0,0,1-3-1.65.72.72,0,0,1,1.15-.87,2.74,2.74,0,0,0,1.82,1.08h0a2.22,2.22,0,0,0,1.61-1.07.72.72,0,1,1,1.15.85,3.48,3.48,0,0,1-2.76,1.66Zm-10.64,16.46a.72.72,0,0,1-.36-1.35l2-1.13.13,0c4-.58,8.63,1,8.83,1.1a.73.73,0,0,1,.44.92.72.72,0,0,1-.92.44c-.05,0-4.43-1.53-8-1l-1.78,1a.73.73,0,0,1-.35.09m4.88,5.44A15.66,15.66,0,1,1,206,240.89a15.67,15.67,0,0,1-15.66,15.66m0-29.87a14.22,14.22,0,1,0,14.21,14.21,14.23,14.23,0,0,0-14.21-14.21"/><path class="cls-13" d="M218.85,235.47a2.78,2.78,0,1,0,2.78,2.78,2.78,2.78,0,0,0-2.78-2.78m0,4.65a1.91,1.91,0,0,1-.79-.18,2,2,0,0,0,0-3.38,1.76,1.76,0,0,1,.79-.18,1.87,1.87,0,1,1,0,3.74m10.23-4.65a2.78,2.78,0,1,0,2.77,2.78,2.79,2.79,0,0,0-2.77-2.78m0,4.65a1.92,1.92,0,0,1-.8-.18,2,2,0,0,0,0-3.38,1.77,1.77,0,0,1,.8-.18,1.87,1.87,0,0,1,0,3.74m-5.86,4.68a.53.53,0,0,1-.41-.2.54.54,0,0,1,.07-.76l1.19-1,1.11,1a.55.55,0,0,1,0,.76.54.54,0,0,1-.77,0l-.42-.37-.47.38a.51.51,0,0,1-.35.13m-4.67-10.15a4.22,4.22,0,0,1-3-1.65.72.72,0,1,1,1.15-.87,2.74,2.74,0,0,0,1.82,1.08h0a2.22,2.22,0,0,0,1.61-1.07.72.72,0,1,1,1.15.85,3.48,3.48,0,0,1-2.76,1.66Zm11.17,0a4.19,4.19,0,0,1-3-1.65.72.72,0,1,1,1.14-.87,2.76,2.76,0,0,0,1.82,1.08h0a2.18,2.18,0,0,0,1.61-1.07.72.72,0,0,1,1.16.85,3.49,3.49,0,0,1-2.76,1.66Zm-10.64,16.46a.72.72,0,0,1-.35-1.35l2-1.13.14,0c4-.58,8.62,1,8.82,1.1a.72.72,0,0,1-.48,1.36s-4.42-1.53-8-1l-1.78,1a.8.8,0,0,1-.36.09m4.89,5.44a15.66,15.66,0,1,1,15.65-15.66A15.67,15.67,0,0,1,224,256.55m0-29.87a14.22,14.22,0,1,0,14.21,14.21A14.24,14.24,0,0,0,224,226.68"/><path class="cls-13" d="M252.64,235.47a2.78,2.78,0,1,0,2.78,2.78,2.78,2.78,0,0,0-2.78-2.78m0,4.65a1.91,1.91,0,0,1-.79-.18,2,2,0,0,0,0-3.38,1.76,1.76,0,0,1,.79-.18,1.87,1.87,0,1,1,0,3.74m10.23-4.65a2.78,2.78,0,1,0,2.77,2.78,2.79,2.79,0,0,0-2.77-2.78m0,4.65a1.92,1.92,0,0,1-.8-.18,2,2,0,0,0,0-3.38,1.77,1.77,0,0,1,.8-.18,1.87,1.87,0,0,1,0,3.74M257,244.8a.53.53,0,0,1-.41-.2.54.54,0,0,1,.07-.76l1.19-1,1.11,1a.55.55,0,0,1,0,.76.54.54,0,0,1-.77,0l-.42-.37-.47.38a.51.51,0,0,1-.35.13m-4.67-10.15a4.22,4.22,0,0,1-3-1.65.72.72,0,0,1,1.15-.87,2.74,2.74,0,0,0,1.82,1.08h0a2.22,2.22,0,0,0,1.61-1.07.72.72,0,1,1,1.15.85,3.48,3.48,0,0,1-2.76,1.66Zm11.17,0a4.25,4.25,0,0,1-3-1.65.73.73,0,0,1,.14-1,.72.72,0,0,1,1,.14,2.76,2.76,0,0,0,1.82,1.08h0a2.18,2.18,0,0,0,1.61-1.07.72.72,0,0,1,1.16.85,3.49,3.49,0,0,1-2.76,1.66Zm-10.64,16.46a.72.72,0,0,1-.35-1.35l2-1.13.14,0c4-.58,8.62,1,8.82,1.1a.72.72,0,0,1-.48,1.36s-4.42-1.53-8-1l-1.78,1a.8.8,0,0,1-.36.09m4.89,5.44a15.66,15.66,0,1,1,15.65-15.66,15.67,15.67,0,0,1-15.65,15.66m0-29.87A14.22,14.22,0,1,0,272,240.89a14.24,14.24,0,0,0-14.21-14.21"/></g><g class="cls-18"><path class="cls-13" d="M225.26,398.61a9.69,9.69,0,0,0-2,.2,2,2,0,0,0-1.66,1.79,5.18,5.18,0,1,0,1.54,3.68,5.42,5.42,0,0,0-.24-1.57,2,2,0,0,0,1.19.09,4.63,4.63,0,0,1,5.71,3.57A2.73,2.73,0,0,1,229,409c-.84.78-2.52,1.54-5.54,1.54H212.8a7.14,7.14,0,0,0-5.72,2.66,12,12,0,0,0-2.14,5.83c-.64,4.37-.25,9.64-.25,14.52a2,2,0,1,0,4.08,0c0-5.07-.33-10.3.2-13.94a8.77,8.77,0,0,1,1.33-3.92,2.89,2.89,0,0,1,.63-.63v44.78a2.91,2.91,0,0,0,5.82,0V436a1,1,0,0,1,1-1h.48a1,1,0,0,1,1,1v23.88a2.91,2.91,0,0,0,5.82,0V414.57a10.91,10.91,0,0,0,6.73-2.58,7,7,0,0,0,2.11-6.29A8.73,8.73,0,0,0,225.26,398.61Z"/><path class="cls-13" d="M233.05,385.88l9.64-3-7.65-3,8.16-1.81-5.81-2.2,6-5.07L236.6,368l8-2.17L239.48,363c-12.11.11-21.86,6-21.86,13.23,0,4.3,3.44,8.12,8.77,10.54.61,1,1.18,3.11-1.5,6.09,4.55-.82,7.09-2.64,8.4-4a35,35,0,0,0,6.09.58Z"/><path class="cls-13" d="M241.91,363l5.7,3.13-6.29,1.71,5.49,2.32-6.23,5,7.85,3.12-9.21,2.44,7.66,3.06L237,386.8l4.6,2.57c11.42-.55,20.4-6.24,20.4-13.19S253.2,363.63,241.91,363"/></g><g class="cls-19"><path class="cls-13" d="M355,202.75a6.27,6.27,0,1,1-6.26,6.27,6.27,6.27,0,0,1,6.26-6.27"/><path class="cls-13" d="M347.06,274.27v2.92a3.52,3.52,0,0,0,3.52,3.51,3.32,3.32,0,0,0,3.28-3.51v-2.92Z"/><path class="cls-13" d="M378.08,226.14s-9.6-6.72-10.78-7.49a11.78,11.78,0,0,0-6.24-2.1l-5.5,0h-1.15l-5.49,0a11.78,11.78,0,0,0-6.24,2.1c-1.19.77-10.78,7.49-10.78,7.49a2.91,2.91,0,0,0-.71,4.05l5.62,8.08a2.92,2.92,0,0,0,2.4,1.26,2.88,2.88,0,0,0,1.67-.53,2.92,2.92,0,0,0,.73-4.06l-4-5.7,7.42-5.24a1.35,1.35,0,0,1,2,1.22v12.37h15.86V225.22a1.34,1.34,0,0,1,2-1.22l7.43,5.24-4,5.7a2.92,2.92,0,0,0,.73,4.06,2.9,2.9,0,0,0,4.06-.73l5.63-8.08a2.91,2.91,0,0,0-.71-4.05"/><polygon class="cls-13" points="340.87 239.23 340.87 272.87 344.76 272.87 344.76 272.86 353.86 272.86 353.86 255.39 356.12 255.39 356.12 272.86 364.91 272.86 364.91 272.87 369.05 272.87 369.05 239.23 340.87 239.23"/><path class="cls-13" d="M356.12,274.52v2.67a3.57,3.57,0,0,0,3.58,3.51,3.27,3.27,0,0,0,3.22-3.51v-2.67Z"/></g><line class="cls-20" x1="382.16" y1="380.76" x2="371.27" y2="380.76"/><polyline class="cls-20" points="388.97 380.76 399.86 380.76 399.86 439.26 337.24 439.26 337.24 398.41 337.24 380.76 346.76 380.76"/><line class="cls-20" x1="364.46" y1="380.76" x2="353.57" y2="380.76"/><g class="cls-21"><path class="cls-20" d="M353.57,380.41v6a3.42,3.42,0,1,1-6.81,0v-6a3.62,3.62,0,0,1,3.41-3.78,3.27,3.27,0,0,1,2.41,1.1A4.07,4.07,0,0,1,353.57,380.41Z"/><path class="cls-20" d="M389,380.41v6a3.42,3.42,0,1,1-6.81,0v-6a3.62,3.62,0,0,1,3.41-3.78,3.27,3.27,0,0,1,2.41,1.1A4.07,4.07,0,0,1,389,380.41Z"/><path class="cls-20" d="M371.27,380.41v6a3.42,3.42,0,1,1-6.81,0v-6a3.62,3.62,0,0,1,3.41-3.78,3.27,3.27,0,0,1,2.41,1.1A4.07,4.07,0,0,1,371.27,380.41Z"/><circle class="cls-20" cx="368.55" cy="413.39" r="14.98" transform="translate(-133.9 646.33) rotate(-73.15)"/><path class="cls-20" d="M361.74,421.56a7,7,0,0,1,13.86,0"/></g><line class="cls-20" x1="371.27" y1="407.94" x2="376.72" y2="407.94"/><line class="cls-20" x1="360.38" y1="407.94" x2="365.82" y2="407.94"/><g class="cls-22"><path class="cls-13" d="M295.32,154.51a1.49,1.49,0,0,0,.13,1.28c.13.26.39.39.51.52s.26.13.26.26l6.56,5c-.13.13-.13.26-.26.39l-.9,1c-2.57,3.09-5.27,6-7.84,9.13a1.38,1.38,0,1,0,1.67,2.19l10.41-6.56c.26-.13.39-.26.65-.38h.12l.26,1.67c.26,1.8.52,3.47.77,5.27a1.41,1.41,0,0,0,1.29,1.41,1.22,1.22,0,0,0,1.41-1.16c.39-1.15.77-2.31,1.16-3.34l1.16-3.21c.51-1.42.9-2.83,1.41-4.24.39-1,.13-1.68-.64-2.06a1.08,1.08,0,0,0-.9,0c-.39.13-.64.51-.9,1.16a6.19,6.19,0,0,1-.52,1.41c-.12.39-.25.77-.38,1.29-.26.9-.64,1.67-.9,2.57l-.26.51v-.13c0-.38-.13-.9-.13-1.28-.13-.65-.13-1.29-.25-1.93a1.45,1.45,0,0,0-.39-1c-.26-.39-.77-.77-2.06-.13-.25.13-.38.26-.64.39s-.26.13-.39.25l-4.37,2.83,1.55-1.8c.9-1,1.8-2,2.7-3.21a1.4,1.4,0,0,0-.13-2.19l-.39-.38c-.13,0-.13-.13-.25-.13l-3.6-3h.12l3.09.39c1.28.13,2.7.38,4,.51,1,.13,1.68-.26,1.8-1a2,2,0,0,0-.12-.9,2.61,2.61,0,0,0-1.16-.64,11.06,11.06,0,0,0-2.06-.26l-3.21-.38c-2.19-.26-4.5-.65-6.69-.9a1.51,1.51,0,0,0-1.67.77"/><path class="cls-13" d="M291,106.81a14.12,14.12,0,0,0,3.86,4.5,9.21,9.21,0,0,0,2.95,1.42,4.79,4.79,0,0,0,3.48-.39l.12-.13a4.56,4.56,0,0,0,2.32-2.57,10.38,10.38,0,0,0,.64-3.21,14.17,14.17,0,0,0-1.28-5.79l-.13-.13c-.13-.26-.13-.38-.26-.64a5.39,5.39,0,0,0-5.4-2.57,8.61,8.61,0,0,0-3,.9,8.5,8.5,0,0,0-2.44,1.8,5.61,5.61,0,0,0-1.29,6c.13.26.13.39.26.64Z"/><path class="cls-13" d="M329.39,106.81l-.38-.38a2.13,2.13,0,0,0-2.83.12l-9.52,8.87-.25.13a5.28,5.28,0,0,1-.9-.13,18.06,18.06,0,0,0-1.8-.38c-2.32-.39-10-1.41-15,2.7-3.72,3-6.55,10.28-8.35,14.78a27.81,27.81,0,0,1-1.42,3.48c-.77,1.8-.77,2.44,0,4.11l5.79,9a2.24,2.24,0,0,0,.77.77,1,1,0,0,0,.64.13h.39c.38-.13.9-.39,1.28-.52l.26-.12a7.11,7.11,0,0,0,1-.65l.26-.25a2,2,0,0,0,.25-2.32c-.12-.13-1.8-3.73-3.08-6.43-.39-.77-.64-1.41-.9-1.8a1,1,0,0,1,.26-1.15c.25-.26,3.34-6.56,3.34-6.56l.13-.13.13-.13h.25c.26,0,.52.13,2.06,3.73.39.9,2.57,5,3.21,6.3.52,1,1,1.93,1.55,2.83a8,8,0,0,0,4.11,3.21,8.38,8.38,0,0,0,1.93.52,7.13,7.13,0,0,1,3.34,2.06,23.43,23.43,0,0,1,1.8,1.79,5.88,5.88,0,0,0,.9.9c1.29,1.42,2.7,2.7,4,4.12l.25.26,3.6,14.14a4.07,4.07,0,0,0,1.55,2.83,3.12,3.12,0,0,0,2.44.38,4.53,4.53,0,0,0,1.41-.51c.26-.13.39-.39.65-.64a2.64,2.64,0,0,0,.38-2.45v-.13c-.13-.38-.13-.77-.25-1.15a27.2,27.2,0,0,1-.39-3.22,14,14,0,0,0-.26-2.31,4.08,4.08,0,0,0-.13-1c-1-10.41-1.8-13.24-2.31-13.89-.39-.38-.64-.77-1-1.15a30.63,30.63,0,0,1-2.7-3.09.91.91,0,0,1,.26-1.41l8.23-4,9.64,5.27c2.18,1.55,3.73.65,4.5-.12l.26-.26.25-.39a5.94,5.94,0,0,0,.65-1.28,1.17,1.17,0,0,0,0-.9,2.78,2.78,0,0,0-1.29-1.93L336.72,131c-.13-.13-.26-.13-.39-.26l-.25-.12a2.12,2.12,0,0,0-.9-.52,2.51,2.51,0,0,0-1.93-.13c-.26,0-.39.13-.64.13a28.79,28.79,0,0,1-3.35,1.16l-8.61,3.21-.39-.64c-.64-1.41-2.18-4.76-3.73-7.71l-.12-.26-.39-.77-1.16-2.57.77.12a2.14,2.14,0,0,1,.9.13h.26a.78.78,0,0,1,.52.13c.38,0,.64.13,1,.13h.39a5,5,0,0,0,1.67-.77l.26-.26.26-.26c0-.12,2.44-3.34,4.62-6.17l3.35-4.5c1.54-2.31,1.15-3.6.51-4.24"/></g><g class="cls-23"><path class="cls-13" d="M361.45,487.27s-1.27-1.54-5.15-1.54c-6.54,0-13.18,10.2-13.18,10.2l-12.1.56a4.8,4.8,0,0,0-4.59,5,5.23,5.23,0,0,0,.17,1.05c-.32,0,1.15,2.49,1.28,2.17a4.83,4.83,0,0,0,3.57,1.37l15.15-.7,4.71-3.65c4.83,8,5.44,14,5.27,16.7l-4.2,15.36,1.15,21.78a4.81,4.81,0,0,0,4.8,4.56h.26a4.82,4.82,0,0,0,4.55-5.06l-1-19.33,7.74-12.81,1.72-2.65c.09-.79,1.47-20.2-10.13-33"/><path class="cls-13" d="M309.14,498.76c3.45.84,9.86,2.4,13-4.65l-3.06-1.38c-1.89,4.18-5.14,3.75-9.18,2.77-2.92-.71-5.66-1.38-7.74.66a.3.3,0,0,1-.2.08v3.35a3.61,3.61,0,0,0,2.55-1c.63-.63,1.75-.49,4.59.2"/><path class="cls-13" d="M306.33,485.73a1.44,1.44,0,1,1-1.43,1.43,1.43,1.43,0,0,1,1.43-1.43"/><path class="cls-13" d="M308.84,490.48a1.07,1.07,0,1,1-1.07,1.07,1.07,1.07,0,0,1,1.07-1.07"/><path class="cls-13" d="M316.11,489.85a.94.94,0,1,1-.94.94.94.94,0,0,1,.94-.94"/><path class="cls-13" d="M318.21,484.84a1.16,1.16,0,1,1-1.16,1.16,1.16,1.16,0,0,1,1.16-1.16"/><path class="cls-13" d="M313.7,481.46a1.44,1.44,0,1,1-1.44,1.44,1.43,1.43,0,0,1,1.44-1.44"/><path class="cls-13" d="M308.84,478.41a1.44,1.44,0,1,1-1.44,1.44,1.45,1.45,0,0,1,1.44-1.44"/><polygon class="cls-13" points="294.67 558.6 301.5 558.6 301.5 538.88 320.54 538.88 320.54 558.6 327.38 558.6 327.38 522.94 294.67 522.94 294.67 558.6"/><path class="cls-13" d="M324.24,505.26l-1.75-2.87c-.14.09-14.32,8.51-27.21,0l-1.85,2.8a26.29,26.29,0,0,0,14.69,4.39,33.67,33.67,0,0,0,16.12-4.36"/><path class="cls-13" d="M344.47,479.19a6.25,6.25,0,1,1,6.25,6.25,6.25,6.25,0,0,1-6.25-6.25"/></g><text class="cls-24" transform="translate(93.8 321.91)">Her<tspan class="cls-25" x="26.82" y="0">k</tspan><tspan x="34.99" y="0">e</tspan><tspan class="cls-26" x="44.05" y="0">n</tspan><tspan x="53.56" y="0">t u één </tspan><tspan class="cls-27" x="109.45" y="0">v</tspan><tspan class="cls-28" x="117.72" y="0">an d</tspan><tspan class="cls-29" x="149.99" y="0">e</tspan><tspan class="cls-30" x="158.87" y="0">z</tspan><tspan x="165.7" y="0">e signalen?</tspan></text><text class="cls-31" transform="translate(40.5 348.31)">Neem <tspan class="cls-32" x="59.51" y="0">c</tspan><tspan x="68.65" y="0">o</tspan><tspan class="cls-33" x="80.48" y="0">nt</tspan><tspan x="99.52" y="0">act op m</tspan><tspan class="cls-34" x="178.69" y="0">e</tspan><tspan x="189.61" y="0">t een </tspan><tspan class="cls-35" x="241.14" y="0">z</tspan><tspan x="249.53" y="0">o</tspan><tspan class="cls-36" x="261.36" y="0">r</tspan><tspan x="268.91" y="0">g</tspan><tspan class="cls-37" x="279.34" y="0">v</tspan><tspan x="289.55" y="0">erlener</tspan></text><text class="cls-38" transform="translate(92.62 187.58)">Minder <tspan class="cls-39" x="39.33" y="0">v</tspan><tspan x="44.9" y="0">er</tspan><tspan class="cls-40" x="55.21" y="0">z</tspan><tspan x="59.79" y="0">o</tspan><tspan class="cls-41" x="66.24" y="0">r</tspan><tspan class="cls-42" x="70.36" y="0">g</tspan><tspan x="75.92" y="0">d</tspan></text><text class="cls-38" transform="translate(41.1 295.29)">De <tspan class="cls-43" x="16.32" y="0">w</tspan><tspan x="25.19" y="0">eg ni</tspan><tspan class="cls-44" x="49.02" y="0">e</tspan><tspan x="54.98" y="0">t vinden</tspan></text><text class="cls-38" transform="translate(27.81 476.71)">Ande<tspan class="cls-41" x="26.19" y="0">r</tspan><tspan x="30.31" y="0">s </tspan><tspan class="cls-45" x="37.81" y="0">g</tspan><tspan x="43.38" y="0">ed</tspan><tspan class="cls-46" x="55.86" y="0">r</tspan><tspan x="59.88" y="0">a</tspan><tspan class="cls-47" x="65.8" y="0">g</tspan><tspan x="71.36" y="0">en</tspan></text><text class="cls-38" transform="translate(54.27 582.73)">Medicijnen <tspan class="cls-39" x="58.58" y="0">v</tspan><tspan x="64.15" y="0">e</tspan><tspan class="cls-42" x="70.19" y="0">r</tspan><tspan class="cls-48" x="74.33" y="0">g</tspan><tspan class="cls-49" x="79.9" y="0">e</tspan><tspan class="cls-41" x="85.86" y="0">t</tspan><tspan x="89.88" y="0">en</tspan></text><text class="cls-38" transform="translate(323.94 455.73)">A<tspan class="cls-50" x="7.27" y="0">f</tspan><tspan x="10.96" y="0">sp</tspan><tspan class="cls-51" x="22.19" y="0">r</tspan><tspan x="26.19" y="0">aak </tspan><tspan class="cls-50" x="46.51" y="0">v</tspan><tspan x="52.08" y="0">e</tspan><tspan class="cls-47" x="58.12" y="0">r</tspan><tspan class="cls-45" x="62.25" y="0">g</tspan><tspan class="cls-52" x="67.82" y="0">e</tspan><tspan class="cls-53" x="73.79" y="0">t</tspan><tspan x="77.81" y="0">en</tspan></text><text class="cls-38" transform="translate(278.16 574.22)">Da<tspan class="cls-45" x="13.49" y="0">g</tspan><tspan x="19.06" y="0">elij</tspan><tspan class="cls-54" x="34.06" y="0">k</tspan><tspan x="39.72" y="0">se handelin</tspan><tspan class="cls-53" x="96.88" y="0">g</tspan><tspan x="102.42" y="0">en </tspan></text><text class="cls-38" transform="translate(297.42 588.62)"><tspan class="cls-55">g</tspan><tspan x="5.49" y="0">aan moeilij</tspan><tspan class="cls-56" x="60.65" y="0">k</tspan><tspan x="66.07" y="0">er</tspan></text><text class="cls-38" transform="translate(334.95 295.29)">A<tspan class="cls-57" x="7.27" y="0">f</tspan><tspan class="cls-27" x="11.18" y="0">v</tspan><tspan x="16.69" y="0">allen</tspan></text><text class="cls-38" transform="translate(175.56 278.29)">B<tspan class="cls-44" x="6.73" y="0">e</tspan><tspan x="12.68" y="0">t</tspan><tspan class="cls-41" x="16.84" y="0">r</tspan><tspan x="20.97" y="0">ok</tspan><tspan class="cls-58" x="33.18" y="0">k</tspan><tspan x="38.61" y="0">en mensen </tspan></text><text class="cls-38" transform="translate(192.5 292.69)">zijn b<tspan class="cls-59" x="26.37" y="0">e</tspan><tspan class="cls-55" x="32.29" y="0">z</tspan><tspan x="36.86" y="0">o</tspan><tspan class="cls-53" x="43.31" y="0">r</tspan><tspan class="cls-47" x="47.43" y="0">g</tspan><tspan x="52.99" y="0">d</tspan></text><text class="cls-38" transform="translate(177.86 473.88)">Ni<tspan class="cls-44" x="10.85" y="0">e</tspan><tspan x="16.81" y="0">t </tspan><tspan class="cls-45" x="23.68" y="0">g</tspan><tspan x="29.25" y="0">oed uit de </tspan></text><text class="cls-38" transform="translate(169.28 488.28)"><tspan class="cls-11">w</tspan><tspan x="8.85" y="0">oo</tspan><tspan class="cls-41" x="21.75" y="0">r</tspan><tspan x="25.87" y="0">den </tspan><tspan class="cls-56" x="47.5" y="0">k</tspan><tspan x="52.93" y="0">omen en </tspan></text><text class="cls-38" transform="translate(171.81 502.68)">in herhaling <tspan class="cls-60" x="61.95" y="0">v</tspan><tspan x="67.43" y="0">allen</tspan></text><text class="cls-38" transform="translate(299.26 187.58)"><tspan class="cls-61">V</tspan><tspan x="6.44" y="0">allen</tspan></text></svg>