<svg xmlns="http://www.w3.org/2000/svg" xmlns:xlink="http://www.w3.org/1999/xlink" version="1.1" x="0px" y="0px" viewBox="0 0 52 65" enable-background="new 0 0 52 52" xml:space="preserve"><g><line fill="none" stroke="#000000" stroke-width="2" stroke-miterlimit="10" x1="36" y1="6.0362377" x2="28" y2="6.0362377"/><polyline fill="none" stroke="#000000" stroke-width="2" stroke-miterlimit="10" points="41,6.0362377 49,6.0362377 49,49 3,49    3,18.9996223 3,6.0362377 10,6.0362377  "/><line fill="none" stroke="#000000" stroke-width="2" stroke-miterlimit="10" x1="23" y1="6.0362377" x2="15" y2="6.0362377"/><path fill="none" stroke="#000000" stroke-width="2" stroke-miterlimit="10" d="M15.0000362,5.7777777v4.4444447   c0,1.5333385-1.1199951,2.7777777-2.5,2.7777777s-2.5-1.2444391-2.5-2.7777777V5.7777777   c0-1.5333385,1.1199951-2.7777777,2.5-2.7777777c0.6900024,0,1.3099976,0.3111436,1.7699585,0.8111572   C14.7200069,4.3222251,15.0000362,5.0111084,15.0000362,5.7777777z"/><path fill="none" stroke="#000000" stroke-width="2" stroke-miterlimit="10" d="M41.0000381,5.7777777v4.4444447   c0,1.5333385-1.1199951,2.7777777-2.5,2.7777777s-2.5-1.2444391-2.5-2.7777777V5.7777777   c0-1.5333385,1.1199951-2.7777777,2.5-2.7777777c0.6900024,0,1.3099976,0.3111436,1.7699585,0.8111572   C40.7200089,4.3222251,41.0000381,5.0111084,41.0000381,5.7777777z"/><path fill="none" stroke="#000000" stroke-width="2" stroke-miterlimit="10" d="M28.0000362,5.7777777v4.4444447   c0,1.5333385-1.1199951,2.7777777-2.5,2.7777777s-2.5-1.2444391-2.5-2.7777777V5.7777777   c0-1.5333385,1.1199951-2.7777777,2.5-2.7777777c0.6900024,0,1.3099976,0.3111436,1.7699585,0.8111572   C27.7200069,4.3222251,28.0000362,5.0111084,28.0000362,5.7777777z"/><circle fill="none" stroke="#000000" stroke-width="2" stroke-miterlimit="10" cx="26" cy="30" r="11"/><path fill="none" stroke="#000000" stroke-width="2" stroke-miterlimit="10" d="M21,36   c0-2.5858612,2.2793446-4.6821175,5.0910587-4.6821175S31.1821175,33.4141388,31.1821175,36"/><line fill="none" stroke="#000000" stroke-width="2" stroke-miterlimit="10" x1="28" y1="26" x2="32" y2="26"/><line fill="none" stroke="#000000" stroke-width="2" stroke-miterlimit="10" x1="20" y1="26" x2="24" y2="26"/></g><text x="0" y="67" fill="#000000" font-size="5px" font-weight="bold" font-family="'Helvetica Neue', Helvetica, Arial-Unicode, Arial, Sans-serif">Created by Dinosoft Labs</text><text x="0" y="72" fill="#000000" font-size="5px" font-weight="bold" font-family="'Helvetica Neue', Helvetica, Arial-Unicode, Arial, Sans-serif">from the Noun Project</text></svg>