<svg xmlns="http://www.w3.org/2000/svg" xmlns:xlink="http://www.w3.org/1999/xlink" version="1.1" x="0px" y="0px" viewBox="200 138.5 110 92.78625" enable-background="new 200 138.5 110 74.229" xml:space="preserve"><g><path d="M240.451,193.307l21.116-6.541l-16.772-6.582l17.893-3.979l-12.723-4.814l13.041-11.119l-14.789-6.265l17.62-4.771   l-11.303-6.205c-26.54,0.239-47.93,13.135-47.93,29.009c0,9.43,7.546,17.807,19.234,23.107c1.345,2.225,2.597,6.82-3.284,13.34   c9.966-1.783,15.531-5.771,18.403-8.711c4.235,0.777,8.717,1.217,13.358,1.271L240.451,193.307z"/><path d="M259.867,143.153l12.498,6.862l-13.8,3.733l12.033,5.099l-13.646,10.885l17.217,6.857l-20.192,5.336l16.777,6.707   l-21.591,6.686l10.083,5.641c25.036-1.201,44.726-13.689,44.726-28.92C303.972,156.936,284.607,144.528,259.867,143.153z"/></g><text x="200" y="227.72899999999998" fill="#000000" font-size="5px" font-weight="bold" font-family="'Helvetica Neue', Helvetica, Arial-Unicode, Arial, Sans-serif">Created by Ryan Cerbus</text><text x="200" y="232.72899999999998" fill="#000000" font-size="5px" font-weight="bold" font-family="'Helvetica Neue', Helvetica, Arial-Unicode, Arial, Sans-serif">from the Noun Project</text></svg>