<svg xmlns="http://www.w3.org/2000/svg" xmlns:xlink="http://www.w3.org/1999/xlink" xmlns:sketch="http://www.bohemiancoding.com/sketch/ns" viewBox="0 0 54 75" version="1.1" x="0px" y="0px"><title>15 - Grubby (Solid)</title><desc>Created with Sketch.</desc><g stroke="none" stroke-width="1" fill="none" fill-rule="evenodd" sketch:type="MSPage"><g sketch:type="MSLayerGroup" transform="translate(-1.000000, 0.000000)" fill="#000000"><path d="M7.806,36.812 L7.806,22.151 C9.036,21.618 10.572,20.729 12.002,19.266 C13.409,19.996 16.809,21.424 22.709,21.995 L23.274,22.05 L23.611,21.593 C23.64,21.554 26.565,17.693 33.962,17.693 C34.984,17.693 36.057,17.769 37.156,17.917 C37.819,19.065 39.746,21.693 43.505,21.693 C44.851,21.693 46.292,21.344 47.806,20.651 L47.806,36.37 L49.504,34.716 C49.737,34.49 55.202,29.032 53.796,18.863 C53.232,14.781 51.473,11.258 48.971,9.195 C48.327,8.664 47.855,7.83 47.568,6.716 C46.741,3.507 43.722,1.265 39.874,1.002 C37.722,0.856 35.882,1.517 33.846,2.333 C33.744,2.374 33.59,2.34 33.568,2.283 C33.019,0.824 31.641,0.021 29.687,0.021 C26.666,0.021 22.79,1.881 19.558,4.831 C19.564,3.942 19.75,3.147 20.253,2.895 L21.938,2.052 L20.296,1.129 C20.222,1.087 18.454,0.108 16.134,0.108 C14.193,0.108 12.453,0.769 10.962,2.073 C9.725,3.154 8.826,4.668 8.363,6.45 C8.269,6.815 8.172,7.205 8.086,7.589 C8.043,7.778 7.867,7.829 7.78,7.829 C7.678,7.829 7.623,7.777 7.557,7.697 C7.099,7.139 6.427,6.818 5.713,6.818 C4.781,6.818 3.974,7.348 3.606,8.202 C1.618,12.815 -2.122,24.623 6.03,34.632 L7.806,36.812" sketch:type="MSShapeGroup"/><path d="M37,38 C39.757,38 42,35.757 42,33 C42,30.243 39.757,28 37,28 C34.243,28 32,30.243 32,33 C32,35.757 34.243,38 37,38 L37,38 Z M38.719,30.02 C39.547,30.02 40.219,30.692 40.219,31.52 C40.219,32.349 39.547,33.02 38.719,33.02 C37.89,33.02 37.219,32.349 37.219,31.52 C37.219,30.692 37.89,30.02 38.719,30.02 L38.719,30.02 Z" sketch:type="MSShapeGroup"/><path d="M19,38 C21.757,38 24,35.757 24,33 C24,30.243 21.757,28 19,28 C16.243,28 14,30.243 14,33 C14,35.757 16.243,38 19,38 L19,38 Z M20.719,30.02 C21.547,30.02 22.219,30.692 22.219,31.52 C22.219,32.349 21.547,33.02 20.719,33.02 C19.89,33.02 19.219,32.349 19.219,31.52 C19.219,30.692 19.89,30.02 20.719,30.02 L20.719,30.02 Z" sketch:type="MSShapeGroup"/><path d="M45.806,41.111 L45.806,23.435 C45.021,23.606 44.253,23.693 43.505,23.693 C39.524,23.693 37.161,21.399 35.996,19.795 C35.298,19.728 34.616,19.694 33.962,19.694 C27.742,19.694 25.299,22.683 25.198,22.81 L24.211,24.15 L22.517,23.985 C17.648,23.515 14.351,22.477 12.378,21.646 C11.583,22.319 10.724,22.906 9.806,23.401 L9.806,42.434 L5.806,37.523 L5.806,51 C5.806,53.757 8.049,56 10.806,56 L13.806,56 L13.806,57.694 C13.806,58.966 14.84,60 16.111,60 L39.5,60 C40.772,60 41.806,58.966 41.806,57.694 L41.806,56 L44.806,56 C47.563,56 49.806,53.757 49.806,51 L49.806,37.214 L45.806,41.111 L45.806,41.111 Z M37,26 C40.859,26 44,29.141 44,33 C44,36.859 40.859,40 37,40 C33.141,40 30,36.859 30,33 C30,29.141 33.141,26 37,26 L37,26 Z M43.219,48.019 C43.219,48.279 43.108,48.539 42.929,48.729 C42.738,48.919 42.479,49.019 42.219,49.019 C41.959,49.019 41.698,48.919 41.509,48.729 C41.328,48.539 41.219,48.279 41.219,48.019 C41.219,47.759 41.318,47.509 41.509,47.319 C41.889,46.94 42.549,46.94 42.929,47.309 C43.118,47.499 43.219,47.759 43.219,48.019 L43.219,48.019 Z M19,26 C22.859,26 26,29.141 26,33 C26,36.859 22.859,40 19,40 C15.141,40 12,36.859 12,33 C12,29.141 15.141,26 19,26 L19,26 Z M15.219,48.019 C15.219,48.279 15.108,48.539 14.929,48.729 C14.738,48.919 14.479,49.019 14.219,49.019 C13.959,49.019 13.698,48.919 13.509,48.729 C13.328,48.539 13.219,48.289 13.219,48.019 C13.219,47.749 13.318,47.499 13.509,47.309 C13.889,46.94 14.559,46.94 14.929,47.309 C15.118,47.509 15.219,47.759 15.219,48.019 L15.219,48.019 Z M10.509,47.319 C10.889,46.94 11.559,46.94 11.929,47.309 C12.118,47.499 12.219,47.749 12.219,48.019 C12.219,48.279 12.108,48.539 11.929,48.729 C11.738,48.919 11.479,49.019 11.219,49.019 C10.959,49.019 10.698,48.919 10.509,48.729 C10.328,48.539 10.219,48.279 10.219,48.019 C10.219,47.759 10.318,47.509 10.509,47.319 L10.509,47.319 Z M11.219,52.019 C10.959,52.019 10.698,51.909 10.509,51.729 C10.318,51.539 10.219,51.279 10.219,51.019 C10.219,50.759 10.318,50.499 10.509,50.319 C10.889,49.94 11.549,49.94 11.919,50.309 C12.108,50.499 12.219,50.759 12.219,51.019 C12.219,51.279 12.108,51.539 11.929,51.729 C11.738,51.909 11.479,52.019 11.219,52.019 L11.219,52.019 Z M13.929,54.729 C13.738,54.909 13.479,55.019 13.219,55.019 C12.948,55.019 12.698,54.909 12.509,54.729 C12.328,54.539 12.219,54.279 12.219,54.019 C12.219,53.759 12.328,53.499 12.509,53.309 C12.889,52.94 13.549,52.94 13.929,53.309 C14.108,53.499 14.219,53.759 14.219,54.019 C14.219,54.279 14.108,54.539 13.929,54.729 L13.929,54.729 Z M14.219,52.019 C13.948,52.019 13.698,51.909 13.509,51.729 C13.328,51.539 13.219,51.289 13.219,51.019 C13.219,50.749 13.318,50.499 13.509,50.309 C13.879,49.949 14.549,49.94 14.929,50.309 C15.108,50.499 15.219,50.759 15.219,51.019 C15.219,51.279 15.108,51.539 14.929,51.729 C14.738,51.909 14.479,52.019 14.219,52.019 L14.219,52.019 Z M16.929,54.729 C16.738,54.909 16.479,55.019 16.219,55.019 C15.948,55.019 15.698,54.909 15.509,54.729 C15.328,54.539 15.219,54.279 15.219,54.019 C15.219,53.759 15.328,53.499 15.509,53.309 C15.889,52.94 16.549,52.94 16.929,53.309 C17.118,53.499 17.219,53.759 17.219,54.019 C17.219,54.279 17.118,54.539 16.929,54.729 L16.929,54.729 Z M17.219,52.019 C16.959,52.019 16.698,51.909 16.509,51.729 C16.328,51.539 16.219,51.279 16.219,51.019 C16.219,50.759 16.328,50.499 16.509,50.309 C16.889,49.94 17.549,49.94 17.919,50.309 C18.108,50.499 18.219,50.759 18.219,51.019 C18.219,51.279 18.108,51.539 17.929,51.729 C17.738,51.919 17.479,52.019 17.219,52.019 L17.219,52.019 Z M19.929,54.729 C19.738,54.919 19.488,55.019 19.219,55.019 C18.959,55.019 18.698,54.909 18.509,54.729 C18.318,54.539 18.219,54.279 18.219,54.019 C18.219,53.759 18.318,53.499 18.509,53.309 C18.898,52.94 19.549,52.94 19.919,53.309 C20.108,53.499 20.219,53.759 20.219,54.019 C20.219,54.279 20.108,54.539 19.929,54.729 L19.929,54.729 Z M23.929,54.729 C23.738,54.909 23.488,55.019 23.219,55.019 C22.948,55.019 22.688,54.909 22.509,54.729 C22.318,54.539 22.219,54.289 22.219,54.019 C22.219,53.759 22.328,53.499 22.509,53.309 C22.879,52.94 23.559,52.94 23.929,53.309 C24.108,53.499 24.219,53.759 24.219,54.019 C24.219,54.279 24.108,54.539 23.929,54.729 L23.929,54.729 Z M26.929,54.729 C26.738,54.909 26.479,55.019 26.219,55.019 C25.948,55.019 25.698,54.919 25.509,54.729 C25.318,54.539 25.219,54.289 25.219,54.019 C25.219,53.759 25.328,53.499 25.509,53.309 C25.898,52.94 26.549,52.94 26.929,53.309 C27.108,53.499 27.219,53.759 27.219,54.019 C27.219,54.279 27.108,54.539 26.929,54.729 L26.929,54.729 Z M29.929,54.729 C29.738,54.909 29.479,55.019 29.219,55.019 C28.948,55.019 28.698,54.909 28.509,54.729 C28.328,54.539 28.219,54.279 28.219,54.019 C28.219,53.759 28.328,53.499 28.509,53.309 C28.889,52.94 29.549,52.94 29.929,53.309 C30.108,53.499 30.219,53.759 30.219,54.019 C30.219,54.279 30.108,54.539 29.929,54.729 L29.929,54.729 Z M33.929,54.729 C33.749,54.909 33.488,55.019 33.219,55.019 C32.948,55.019 32.698,54.909 32.509,54.729 C32.328,54.539 32.219,54.279 32.219,54.019 C32.219,53.759 32.328,53.499 32.509,53.309 C32.879,52.94 33.559,52.94 33.929,53.309 C34.108,53.499 34.219,53.759 34.219,54.019 C34.219,54.279 34.108,54.539 33.929,54.729 L33.929,54.729 Z M34.22,49.449 L34.219,49.449 C34.076,49.449 33.936,49.413 33.804,49.354 C33.772,49.339 33.747,49.314 33.716,49.295 C33.644,49.253 33.568,49.219 33.509,49.159 C33.487,49.136 33.477,49.106 33.458,49.081 C33.446,49.068 33.43,49.063 33.419,49.049 C33.396,49.018 33.39,48.981 33.371,48.949 C33.336,48.888 33.304,48.828 33.281,48.76 C33.259,48.695 33.249,48.63 33.242,48.562 C33.237,48.524 33.219,48.489 33.219,48.449 C33.219,48.425 33.231,48.403 33.232,48.379 C33.237,48.317 33.251,48.259 33.267,48.198 C33.284,48.128 33.304,48.062 33.336,47.998 C33.36,47.953 33.39,47.914 33.42,47.872 C33.451,47.829 33.47,47.778 33.509,47.739 C33.529,47.719 33.557,47.712 33.579,47.695 C33.595,47.681 33.602,47.662 33.619,47.65 L34.708,46.833 C30.232,44.422 25.535,48.141 23.735,49.837 L24.818,50.65 C25.261,50.981 25.351,51.608 25.019,52.049 C24.822,52.312 24.523,52.449 24.218,52.449 C24.009,52.449 23.799,52.384 23.619,52.249 L19.619,49.249 C19.177,48.918 19.087,48.291 19.419,47.85 C19.75,47.407 20.377,47.319 20.818,47.65 L22.103,48.613 C25.084,45.606 31.041,41.953 36.414,45.553 L37.619,44.65 C38.06,44.318 38.687,44.406 39.019,44.85 C39.351,45.291 39.261,45.918 38.818,46.249 L34.818,49.249 C34.778,49.279 34.732,49.293 34.689,49.317 C34.646,49.339 34.608,49.366 34.563,49.382 C34.451,49.424 34.336,49.449 34.22,49.449 L34.22,49.449 Z M37.929,54.729 C37.738,54.909 37.479,55.019 37.219,55.019 C36.948,55.019 36.698,54.909 36.509,54.729 C36.328,54.539 36.219,54.279 36.219,54.019 C36.219,53.759 36.328,53.499 36.509,53.309 C36.889,52.94 37.549,52.94 37.929,53.309 C38.108,53.499 38.219,53.759 38.219,54.019 C38.219,54.279 38.108,54.539 37.929,54.729 L37.929,54.729 Z M38.219,51.019 C38.219,50.759 38.328,50.499 38.509,50.309 C38.879,49.949 39.549,49.94 39.929,50.309 C40.108,50.499 40.219,50.759 40.219,51.019 C40.219,51.279 40.108,51.539 39.929,51.729 C39.738,51.909 39.488,52.019 39.219,52.019 C38.948,52.019 38.698,51.909 38.509,51.729 C38.328,51.539 38.219,51.279 38.219,51.019 L38.219,51.019 Z M40.929,54.729 C40.738,54.909 40.479,55.019 40.219,55.019 C39.948,55.019 39.698,54.909 39.509,54.729 C39.328,54.539 39.219,54.279 39.219,54.019 C39.219,53.759 39.328,53.499 39.509,53.309 C39.889,52.94 40.549,52.94 40.929,53.309 C41.108,53.499 41.219,53.759 41.219,54.019 C41.219,54.279 41.108,54.539 40.929,54.729 L40.929,54.729 Z M41.509,51.729 C41.328,51.539 41.219,51.279 41.219,51.019 C41.219,50.759 41.328,50.499 41.509,50.309 C41.889,49.94 42.549,49.94 42.929,50.309 C43.108,50.499 43.219,50.759 43.219,51.019 C43.219,51.279 43.108,51.539 42.929,51.729 C42.738,51.909 42.479,52.019 42.219,52.019 C41.959,52.019 41.698,51.909 41.509,51.729 L41.509,51.729 Z M43.929,54.729 C43.738,54.909 43.479,55.019 43.219,55.019 C42.959,55.019 42.698,54.909 42.509,54.729 C42.318,54.539 42.219,54.279 42.219,54.019 C42.219,53.759 42.318,53.499 42.509,53.309 C42.898,52.94 43.549,52.94 43.929,53.309 C44.118,53.499 44.219,53.759 44.219,54.019 C44.219,54.279 44.118,54.539 43.929,54.729 L43.929,54.729 Z M45.929,51.729 C45.738,51.909 45.479,52.019 45.219,52.019 C44.959,52.019 44.698,51.909 44.509,51.729 C44.328,51.539 44.219,51.279 44.219,51.019 C44.219,50.759 44.328,50.499 44.509,50.309 C44.889,49.94 45.549,49.94 45.929,50.309 C46.108,50.499 46.219,50.759 46.219,51.019 C46.219,51.279 46.108,51.539 45.929,51.729 L45.929,51.729 Z M45.929,48.729 C45.738,48.919 45.479,49.019 45.219,49.019 C44.959,49.019 44.698,48.919 44.509,48.729 C44.328,48.539 44.219,48.289 44.219,48.019 C44.219,47.749 44.318,47.499 44.509,47.309 C44.879,46.94 45.559,46.94 45.929,47.309 C46.118,47.509 46.219,47.759 46.219,48.019 C46.219,48.279 46.118,48.539 45.929,48.729 L45.929,48.729 Z" sketch:type="MSShapeGroup"/></g></g><text x="0" y="75" fill="#000000" font-size="5px" font-weight="bold" font-family="'Helvetica Neue', Helvetica, Arial-Unicode, Arial, Sans-serif">Created by Ben Davis</text><text x="0" y="80" fill="#000000" font-size="5px" font-weight="bold" font-family="'Helvetica Neue', Helvetica, Arial-Unicode, Arial, Sans-serif">from the Noun Project</text></svg>