<?xml version="1.0" ?><svg id="Layer_1" style="enable-background:new 0 0 112.734 293.388;" version="1.1" viewBox="0 0 112.734 293.388" xml:space="preserve" xmlns="http://www.w3.org/2000/svg" xmlns:xlink="http://www.w3.org/1999/xlink"><g><path d="M94.65,34.642c-3.854,2.161-5.227,7.036-3.066,10.891c6.456,11.516,6.78,24.156,0.913,35.596   c-4.769,9.297-13.02,16.681-22.397,20.5c-39.781,6.728-66.418,23.242-69.738,43.397c-1.764,10.713,2.079,26.593,30.406,41.411   c0.587,0.307,1.195,0.533,1.811,0.684c-1.774,27.142-9.083,58.651-29.65,84.225c-4.326,5.38-3.472,13.248,1.907,17.575   c2.31,1.856,5.077,2.759,7.826,2.759c3.655,0,7.279-1.596,9.749-4.666c23.49-29.209,32.405-64.005,34.917-94.262   c3.628,0.519,7.301,0.956,10.735,1.284c2.97,29.305,3.241,60.931-4.751,82.507c-2.398,6.474,0.906,13.666,7.38,16.063   c1.432,0.53,2.898,0.781,4.34,0.781c5.08,0,9.856-3.119,11.724-8.161c19.993-53.976-2.716-153.077-6.963-170.463   c11.321-5.589,21.083-14.914,26.94-26.334c8.394-16.364,7.97-34.378-1.192-50.722C103.38,33.854,98.503,32.484,94.65,34.642z    M56.049,125.009c-1.89,0.417-3.907,0.162-5.737-0.79c-0.126-0.127-0.251-0.258-0.378-0.385c0.032-2.636,0.012-5.285-0.059-7.945   c1.222-0.334,2.444-0.669,3.666-1.003c1.222-0.334,2.443-0.668,3.664-1.003c1.318,2.415,2.594,4.865,3.827,7.346   c-0.058,0.187-0.12,0.371-0.178,0.558C59.647,123.505,57.927,124.591,56.049,125.009z M16.15,147.626   c0.793-4.818,5.225-10.366,13.401-15.542c1.312,7.363,3.237,20.811,3.473,37.269C21.135,162.143,15.038,154.378,16.15,147.626z    M60.952,181.949c-2.965-4.355-6.062-8.525-9.275-12.505c1.669-13.518,1.993-27.351,0.919-41.286   c1.378,0.226,2.772,0.21,4.114-0.068c0.001,0,0.001,0,0.002,0c0.002,0,0.004-0.001,0.006-0.001   c1.329-0.274,2.605-0.811,3.761-1.582c4.752,13.698,8.203,27.999,10.197,42.719C67.559,173.65,64.313,177.892,60.952,181.949z"/><path d="M39.414,58.092C27.007,58.819,17.54,69.461,18.267,81.868c0.725,12.406,11.369,21.873,23.775,21.148   c12.404-0.727,21.873-11.371,21.148-23.777C62.464,66.834,51.818,57.366,39.414,58.092z M57.233,86.263   c0.992,3.927-3.701,8.5-10.482,10.216c-6.783,1.715-13.086-0.078-14.078-4.005c-0.994-3.927,5.498-1.39,12.279-3.104   C51.735,87.655,56.239,82.337,57.233,86.263z"/><polygon points="42.135,47.877 44.259,47.853 54.337,1.838 48.38,0  "/><polygon points="15.752,5.623 32.886,48.772 34.691,47.652 19.51,3.059  "/><polygon points="83.269,15.202 79.102,13.374 51.579,50.758 53.482,51.696  "/></g></svg>