<?xml version="1.0" ?><svg id="Layer_1" style="enable-background:new 0 0 207.566 273.634;" version="1.1" viewBox="0 0 207.566 273.634" xml:space="preserve" xmlns="http://www.w3.org/2000/svg" xmlns:xlink="http://www.w3.org/1999/xlink"><g><path d="M145.285,53.413c-0.734-2.569-0.426-5.271,0.875-7.606c1.117-2.015,2.879-3.539,4.945-4.388   c-3.857-3.106-8.758-4.969-14.096-4.969c-12.428,0-22.5,10.074-22.5,22.5c0,12.429,10.072,22.5,22.5,22.5   c10.477,0,19.283-7.161,21.786-16.858c-2.489-1.587-5.374-3.313-8.751-5.184C147.711,58.11,146.02,55.981,145.285,53.413z"/><circle cx="50.01" cy="58.95" r="22.5"/><path d="M190.961,33.463c0.257,0,0.514-0.098,0.709-0.293c0.389-0.392,0.389-1.023-0.003-1.416l-16.418-16.378   c-0.392-0.39-1.026-0.388-1.415,0.002c-0.391,0.392-0.391,1.026,0.002,1.416l16.42,16.378   C190.451,33.366,190.707,33.463,190.961,33.463z"/><path d="M164.241,24.996c-0.39,0.393-0.39,1.024,0.002,1.415l16.42,16.378c0.196,0.194,0.451,0.291,0.706,0.291   c0.257,0,0.514-0.098,0.709-0.293c0.391-0.393,0.391-1.025-0.002-1.415l-16.42-16.378   C165.264,24.606,164.631,24.606,164.241,24.996z"/><path d="M157.41,9.324c-0.38,0.399-0.365,1.033,0.035,1.413l39.231,37.319c0.194,0.185,0.442,0.276,0.688,0.276   c0.266,0,0.529-0.104,0.725-0.311c0.383-0.399,0.365-1.032-0.035-1.412l-39.23-37.321C158.425,8.908,157.789,8.923,157.41,9.324z"/><path d="M96.494,195.031L77.021,163.93c0.018-0.218,0.033-0.436,0.033-0.659v-61.4c2.598-0.574,5.682-1.377,8.873-2.484   c4.071-1.442,8.345-3.318,12.172-6.368c1.902-1.537,3.717-3.415,5.123-5.821c1.408-2.389,2.323-5.367,2.311-8.463   c0.002-3.158-0.9-6.285-2.422-9.163c-2.305-4.337-5.896-8.309-10.965-12.509c-5.084-4.189-11.715-8.585-20.361-13.392   c-1.105-0.614-2.294-0.929-3.478-0.988c3.854,4.33,6.202,10.028,6.202,16.269c0,1.614-0.162,3.19-0.461,4.718   c5.193,3.394,8.912,6.373,11.346,8.831c1.897,1.899,3.006,3.462,3.558,4.52c0.556,1.073,0.575,1.563,0.579,1.715   c-0.012,0.152,0.014,0.125-0.137,0.414c-0.226,0.474-1.441,1.728-3.537,2.864c-3.101,1.751-7.732,3.207-11.435,4.051   c-1.856,0.431-3.493,0.734-4.636,0.924c-0.418,0.068-0.768,0.122-1.042,0.163H30.691c-0.141,0-0.277,0.014-0.416,0.021   c-1.811,0.029-4.783,0.428-8.162,2.132c-5.379,2.667-11.178,8.502-15.236,18.84C2.772,118.522,0.013,133.528,0,156.188   c0,5.857,0.189,12.227,0.596,19.159c0.248,4.25,3.773,7.532,7.977,7.532c0.158,0,0.316-0.004,0.477-0.014   c4.412-0.257,7.777-4.043,7.518-8.453c-0.39-6.652-0.567-12.71-0.567-18.225c-0.032-24.213,3.496-37.816,6.964-44.916v33.06v18.939   v98c0,6.83,5.537,12.363,12.363,12.363c6.828,0,12.365-5.533,12.365-12.363v-90.272h4.262l19.638,31.369L50.037,245.77   c-3.071,6.185-0.548,13.687,5.637,16.758c1.785,0.888,3.682,1.308,5.549,1.308c4.598,0,9.021-2.546,11.206-6.943l24.667-49.667   C99.028,203.334,98.799,198.713,96.494,195.031z"/><path d="M73.142,27.333c0,1.105,0.896,2,2,2s2.001-0.895,2.001-2V4h126.426v249.333h-42.371l22.897-46.107   c1.933-3.892,1.706-8.513-0.6-12.194l-19.474-31.104c0.018-0.217,0.033-0.435,0.033-0.656v-59.356v-2.045   c2.598-0.574,5.682-1.377,8.873-2.484c4.072-1.442,8.346-3.317,12.174-6.369c1.902-1.535,3.715-3.413,5.121-5.821   c1.408-2.387,2.324-5.365,2.311-8.463c0.002-3.157-0.9-6.284-2.42-9.163c-2.305-4.335-5.896-8.306-10.967-12.509   c-5.086-4.187-11.715-8.584-20.363-13.39c-3.861-2.146-8.732-0.753-10.877,3.108c-2.146,3.863-0.754,8.734,3.109,10.879   c10.729,5.945,17.598,11.019,21.379,14.841c1.898,1.899,3.008,3.462,3.559,4.52c0.557,1.073,0.576,1.563,0.58,1.714   c-0.016,0.152,0.012,0.127-0.139,0.416c-0.227,0.473-1.439,1.729-3.537,2.864c-3.1,1.75-7.732,3.205-11.434,4.05   c-1.857,0.431-3.492,0.734-4.639,0.923c-0.415,0.069-0.764,0.124-1.037,0.164h-5.647h-32.409c-0.141,0-0.277,0.014-0.416,0.021   c-1.808,0.029-4.781,0.428-8.163,2.132c-5.379,2.667-11.178,8.502-15.235,18.84c-4.105,10.38-6.865,25.387-6.878,48.046   c0.003,5.857,0.189,12.227,0.597,19.159c0.248,4.25,3.773,7.532,7.976,7.532c0.158,0,0.317-0.004,0.477-0.014   c4.412-0.257,7.778-4.043,7.521-8.453c-0.393-6.652-0.568-12.71-0.568-18.225c-0.034-24.215,3.494-37.817,6.963-44.918v33.062   v18.939v90.062h-6.898c-0.99,0-1.807,0.72-1.966,1.666c-0.019,0.109-0.034,0.22-0.034,0.334c0,1.104,0.896,2.001,2,2.001v-0.003   H181.9h25.666V0H73.142V27.333z M134.691,170.999h4.262l19.64,31.369l-21.554,43.402c-1.209,2.435-1.54,5.07-1.133,7.563h-1.215   V170.999z"/></g></svg>