<svg xmlns:dc="http://purl.org/dc/elements/1.1/" xmlns:cc="http://creativecommons.org/ns#" xmlns:rdf="http://www.w3.org/1999/02/22-rdf-syntax-ns#" xmlns:svg="http://www.w3.org/2000/svg" xmlns="http://www.w3.org/2000/svg" xmlns:sodipodi="http://sodipodi.sourceforge.net/DTD/sodipodi-0.dtd" xmlns:inkscape="http://www.inkscape.org/namespaces/inkscape" viewBox="0 0 100 125" version="1.1" x="0px" y="0px"><g transform="translate(0,-952.36216)"><path style="" d="m 48.717511,957.36216 c -1.137189,0 -2.13208,0.2336 -2.984972,0.70009 -0.852792,0.4665 -1.500886,1.05669 -1.945481,1.77099 -0.444696,0.70699 -0.668594,1.40608 -0.668594,2.09858 0,0.33529 0.138799,0.64959 0.415796,0.94119 0.284297,0.2843 0.631094,0.42569 1.03929,0.42569 0.692394,0 1.162289,-0.41189 1.410187,-1.23558 0.262297,-0.7872 0.583694,-1.38169 0.962791,-1.78259 0.378996,-0.40819 0.969191,-0.61189 1.770983,-0.61189 0.685093,0 1.242788,0.201 1.672784,0.60189 0.437396,0.4009 0.655294,0.89189 0.655294,1.47499 0,0.2989 -0.072,0.57639 -0.217898,0.83149 -0.138499,0.2551 -0.314097,0.4887 -0.525495,0.70009 -0.204098,0.2041 -0.539495,0.5097 -1.005991,0.9179 -0.532094,0.46649 -0.953791,0.87129 -1.267188,1.21388 -0.313397,0.3353 -0.565394,0.7288 -0.754892,1.18069 -0.189499,0.4446 -0.284398,0.97249 -0.284398,1.58469 0,0.48839 0.127399,0.85639 0.382497,1.10419 0.262397,0.2478 0.583794,0.37249 0.962791,0.37249 0.728893,0 1.161889,-0.37939 1.300387,-1.13739 0.08,-0.35719 0.138199,-0.60489 0.174599,-0.74329 0.044,-0.1458 0.103399,-0.2873 0.176198,-0.42579 0.073,-0.1457 0.181898,-0.3029 0.327697,-0.4706 0.153098,-0.1749 0.352497,-0.376 0.600294,-0.60189 0.896492,-0.8018 1.516486,-1.36919 1.859083,-1.70449 0.349896,-0.34259 0.648494,-0.74739 0.896291,-1.21389 0.255098,-0.46649 0.382497,-1.01009 0.382497,-1.62968 0,-0.78719 -0.222198,-1.51609 -0.666894,-2.18668 -0.437296,-0.67059 -1.05999,-1.19839 -1.869082,-1.58479 -0.808993,-0.39359 -1.741684,-0.59029 -2.798574,-0.59029 z m -0.262798,13.28317 c -0.466495,0 -0.859891,0.1572 -1.180588,0.4706 -0.320697,0.3134 -0.480596,0.69989 -0.480596,1.15909 0,0.51749 0.164199,0.92229 0.492195,1.21389 0.335297,0.2843 0.724394,0.42569 1.168989,0.42569 0.430096,0 0.809493,-0.14579 1.13739,-0.43729 0.328097,-0.2916 0.492295,-0.6921 0.492295,-1.20229 0,-0.4592 -0.157198,-0.84569 -0.470596,-1.15909 -0.313397,-0.3134 -0.699893,-0.4706 -1.159089,-0.4706 z m 8.131624,6.31574 c -0.700894,0 -1.422587,0.068 -2.16178,0.2211 a 2.2351529,2.2351529 0 0 0 -1.819183,1.97058 c -1.03429,-1.02459 -2.458277,-1.65958 -4.032562,-1.65958 -3.13997,0 -5.693746,2.55378 -5.693746,5.69375 9e-4,3.15957 2.554676,5.69374 5.693746,5.69374 3.15957,0 5.720346,-2.53417 5.720346,-5.69374 0,-0.6007 -0.096,-1.17879 -0.269397,-1.72279 a 2.2351529,2.2351529 0 0 0 1.305387,0.095 c 3.560767,-0.73599 5.898145,1.69689 6.269141,3.91776 0.185499,1.11049 -0.041,2.04959 -0.957891,2.90838 -0.917291,0.85889 -2.762274,1.6945 -6.069542,1.6945 a 2.2351529,2.2351529 0 0 0 -0.252798,0.012 c -0.063,0 -0.122699,-0.014 -0.186198,-0.013 l -2.871873,0 -4.150561,0 -4.19876,0 c -2.602576,-0.01 -4.894054,1.12609 -6.279041,2.91507 -1.385187,1.78899 -1.999081,4.00187 -2.346378,6.39874 -0.694493,4.79392 -0.267697,10.57952 -0.267697,15.93732 -0.043,3.0224 4.512557,3.0224 4.469858,0 0,-5.5708 -0.354997,-11.3075 0.222797,-15.2954 0.288898,-1.994 0.824593,-3.48719 1.456687,-4.30358 0.220698,-0.285 0.438396,-0.5125 0.690093,-0.6918 l 0,2.91508 0,19.3961 0,13.7555 0,13.0636 c 0,1.7692 1.423587,3.1928 3.19277,3.1928 1.762383,0 3.19277,-1.4236 3.19277,-3.1928 l 0,-24.2832 0,-1.4716 0,-0.4391 c 0,-0.5969 0.480495,-1.0775 1.07749,-1.0775 l 0.532195,0 c 0.596894,0 1.077489,0.4806 1.077489,1.0775 l 0,0.4391 0,1.4716 0,24.2832 c 0,1.7692 1.423587,3.1928 3.19277,3.1928 1.762384,0 3.19277,-1.4236 3.19277,-3.1928 l 0,-24.9816 0,-1.8375 0,-19.3961 0,-2.81358 0,-0.66679 c 3.19977,-0.2576 5.676947,-1.23089 7.37993,-2.82527 2.001782,-1.87419 2.707375,-4.53748 2.311379,-6.90776 -0.692894,-4.14796 -4.514458,-7.75993 -9.420211,-7.77893 z" fill="#000000" fill-opacity="1" stroke="none"/></g><text x="0" y="115" fill="#000000" font-size="5px" font-weight="bold" font-family="'Helvetica Neue', Helvetica, Arial-Unicode, Arial, Sans-serif">Created by Andrew Doane</text><text x="0" y="120" fill="#000000" font-size="5px" font-weight="bold" font-family="'Helvetica Neue', Helvetica, Arial-Unicode, Arial, Sans-serif">from the Noun Project</text></svg>