<svg xmlns="http://www.w3.org/2000/svg" xmlns:xlink="http://www.w3.org/1999/xlink" version="1.1" x="0px" y="0px" viewBox="0 0 64 80" enable-background="new 0 0 64 64" xml:space="preserve"><g><g><path fill="#000000" d="M52.386,15.096h-2.173c0.006,0.13,0.006,0.257,0.006,0.387c-0.003,9.367-7.203,17.145-16.303,18.019    v30.016h16.4c4.037,0,7.378-3.138,7.63-7.167l2.07-33.137C60.291,18.815,56.796,15.096,52.386,15.096z"/><path fill="#000000" d="M13.781,15.483c0-0.13,0-0.257,0.006-0.387h-2.173c-4.409,0-7.905,3.72-7.63,8.12l2.07,33.137    c0.251,4.028,3.592,7.167,7.63,7.167h16.4V33.503C20.984,32.628,13.784,24.85,13.781,15.483z"/></g><g><g><g><path fill="#000000" d="M42.672,14.918c0,1.243-0.197,2.439-0.563,3.559l-0.082-0.024c0,0,0.054-0.152,0.14-0.444      c0.086-0.289,0.201-0.719,0.297-1.282c0.093-0.561,0.166-1.255,0.155-2.056c-0.011-0.8-0.113-1.705-0.357-2.665      c-0.053-0.197-0.112-0.401-0.175-0.605c0.009-0.013,0.016-0.024,0.025-0.036C42.476,12.483,42.672,13.678,42.672,14.918z"/></g><g><circle fill="#000000" cx="41.398" cy="24.363" r="2.184"/></g><g><circle fill="#000000" cx="35.365" cy="28.22" r="1.845"/></g><g><circle fill="#000000" cx="28.21" cy="28.498" r="1.632"/></g><g><circle fill="#000000" cx="22.275" cy="25.494" r="1.01"/></g><g><path fill="#000000" d="M47.019,15.421c0,1.502-0.221,2.953-0.635,4.32l-4.275-1.264c0.366-1.121,0.563-2.317,0.563-3.559      c0-1.24-0.196-2.435-0.561-3.553c-0.722-2.217-2.1-4.138-3.905-5.531c-0.053-0.042-0.106-0.082-0.158-0.122      c-0.8-0.607-1.704-1.127-2.675-1.526c-0.625-0.255-1.28-0.452-1.952-0.596l-0.254-0.055l-0.255-0.042      c-0.169-0.029-0.345-0.06-0.501-0.077l-0.241-0.028c-0.08-0.01-0.155-0.021-0.262-0.025l-0.293-0.018l-0.146-0.009l-0.075-0.004      l-0.035-0.003L31.34,3.33h-0.015c-1.381-0.043-2.777,0.142-4.085,0.561c-1.321,0.428-2.554,1.072-3.624,1.879      c-1.067,0.809-1.977,1.763-2.683,2.782c-0.184,0.252-0.343,0.512-0.503,0.77c-0.078,0.13-0.147,0.26-0.221,0.39      c-0.075,0.13-0.142,0.262-0.205,0.392c-0.27,0.522-0.479,1.054-0.659,1.568c-0.084,0.26-0.172,0.514-0.235,0.768      c-0.031,0.126-0.07,0.252-0.097,0.376c-0.029,0.126-0.055,0.249-0.08,0.374c-0.013,0.06-0.026,0.122-0.039,0.18      c-0.011,0.062-0.021,0.122-0.031,0.184c-0.019,0.119-0.039,0.24-0.058,0.356c-0.035,0.234-0.054,0.452-0.08,0.669      c-0.019,0.228-0.03,0.467-0.044,0.687l-0.001,0.043c0,0,0,0.009-0.003,0.009v0.01l-0.001,0.078      c-0.003,0.052-0.003,0.103-0.004,0.152c0,0.103-0.003,0.201,0,0.299c0.001,0.39,0.02,0.748,0.05,1.07      c0.059,0.645,0.155,1.148,0.228,1.489c0.035,0.171,0.063,0.289,0.087,0.386c0.023,0.092,0.036,0.14,0.036,0.14l-1.345,0.385      c0,0-0.015-0.045-0.044-0.137c-0.029-0.084-0.077-0.24-0.13-0.425c-0.058-0.206-0.128-0.468-0.197-0.781      c-0.145-0.833-0.22-1.688-0.22-2.562c0-8.252,6.69-14.94,14.942-14.94c3.718,0,7.119,1.358,9.732,3.605      c1.15,0.987,2.147,2.146,2.951,3.437C46.193,9.814,47.019,12.521,47.019,15.421z"/></g><g><path fill="#000000" d="M38.955,11.208c-0.279-0.422-0.72-0.545-1.17-0.326c-0.492,0.241-0.971,0.522-1.44,0.797l-0.115,0.067      c-0.756,0.445-1.511,0.893-2.265,1.342l-1.283,0.761c-0.839-0.354-1.837-0.257-2.591,0.258      c-0.134,0.092-0.262,0.197-0.381,0.313c-0.932,0.923-1.071,2.38-0.331,3.464c0.506,0.742,1.345,1.184,2.244,1.184      c0.379,0,0.747-0.077,1.093-0.23c0.149-0.065,0.297-0.147,0.439-0.244c0.762-0.52,1.212-1.409,1.183-2.331      c0.727-0.628,1.846-1.574,2.749-2.338l0.078-0.066c0.845-0.715,1.514-1.28,1.655-1.409C39.2,12.104,39.249,11.651,38.955,11.208      z"/></g></g></g></g><text x="0" y="79" fill="#000000" font-size="5px" font-weight="bold" font-family="'Helvetica Neue', Helvetica, Arial-Unicode, Arial, Sans-serif">Created by Delwar Hossain</text><text x="0" y="84" fill="#000000" font-size="5px" font-weight="bold" font-family="'Helvetica Neue', Helvetica, Arial-Unicode, Arial, Sans-serif">from the Noun Project</text></svg>