<svg xmlns="http://www.w3.org/2000/svg" xmlns:xlink="http://www.w3.org/1999/xlink" version="1.1" x="0px" y="0px" viewBox="0 0 256 320" style="enable-background:new 0 0 256 256;" xml:space="preserve"><g><path d="M207.5,81.5l-12.2-23.4c-4.1-8-12.4-13.2-21-13.2h-51.6c-6.6,0-13.5,1.6-20,4.8L97,52.7c-1.6-4.5-5.8-7.7-10.8-7.7H58.1   C51.8,45,47,50.1,47,56.4v80.1c0,6.3,4.8,11.4,11.1,11.4h23.6h4.6h4.9c17.6,0,29.4,29.7,36.6,52.1c2.1,6.6,8.2,11.2,14.8,11.2   c8.4,0,15.4-6.9,15.6-15.4c0.4-18.4-1.9-33.1-6.9-44.9c-0.3-0.7-0.1-1.5,0.3-2c0.2-0.3,0.7-0.9,1.4-0.9h39   c11.1,0,20.1-8.1,20.1-18.5V98.6C212,92.9,210.3,86.9,207.5,81.5z M81.6,140H58.1c-1.9,0-3.1-1.5-3.1-3.4V56.4   c0-1.9,1.2-3.4,3.1-3.4h28.1c1.9,0,3.8,1.5,3.8,3.4v1c-1,1-1,2.2,0,3.2v75.9c0,1.9-1.9,3.4-3.8,3.4H81.6z M204,129.5   c0,6-5.4,10.5-12.1,10.5h-39c-3.2,0-6.2,1.7-8.1,4.5c-1.9,2.9-2.3,6.5-0.9,9.6c4.6,10.7,6.7,24.3,6.3,41.6   c-0.1,4.2-3.5,7.6-7.6,7.6c-3.1,0-6.1-2.4-7.2-5.6c-8-24.5-19.2-52.2-38.4-56.9c0.5-1.3,1-2.7,1-4.1V61.3l8.4-4.3   c5.3-2.6,10.8-4,16.3-4h51.6c5.6,0,11,3.5,13.8,8.8l12.3,23.4c2.2,4.2,3.6,9,3.6,13.4V129.5z"/><path d="M71.4,113.6c-4.3,0-7.9,3.5-7.9,7.9s3.5,7.9,7.9,7.9s7.9-3.5,7.9-7.9S75.8,113.6,71.4,113.6z M71.4,125.4   c-2.2,0-3.9-1.8-3.9-3.9s1.8-3.9,3.9-3.9c2.2,0,3.9,1.8,3.9,3.9S73.6,125.4,71.4,125.4z"/></g><text x="0" y="271" fill="#000000" font-size="5px" font-weight="bold" font-family="'Helvetica Neue', Helvetica, Arial-Unicode, Arial, Sans-serif">Created by Bastien Delmare</text><text x="0" y="276" fill="#000000" font-size="5px" font-weight="bold" font-family="'Helvetica Neue', Helvetica, Arial-Unicode, Arial, Sans-serif">from the Noun Project</text></svg>