<svg xmlns="http://www.w3.org/2000/svg" xmlns:xlink="http://www.w3.org/1999/xlink" version="1.1" x="0px" y="0px" viewBox="0 0 100 125" style="enable-background:new 0 0 100 100;" xml:space="preserve"><path d="M72.5,5C60.093,5,50,15.093,50,27.5S60.093,50,72.5,50S95,39.907,95,27.5S84.907,5,72.5,5z M72.5,42.5  c-8.271,0-15-6.729-15-15c0-3.234,1.039-6.225,2.787-8.678l20.89,20.89C78.725,41.461,75.734,42.5,72.5,42.5z M84.713,36.178  l-20.89-20.89c2.453-1.748,5.443-2.787,8.678-2.787c8.271,0,15,6.729,15,15C87.5,30.734,86.461,33.725,84.713,36.178z"/><path d="M47.249,95c4.675,0,9.069-1.82,12.375-5.126c6.822-6.823,6.822-17.925,0-24.748L34.875,40.377  c-3.305-3.306-7.7-5.126-12.375-5.126s-9.069,1.82-12.374,5.126C6.82,43.682,5,48.077,5,52.751s1.82,9.069,5.126,12.374  l24.749,24.749C38.179,93.18,42.574,95,47.249,95z M15.429,59.822c-3.899-3.899-3.899-10.243,0-14.142  c1.889-1.889,4.4-2.929,7.071-2.929c2.671,0,5.183,1.04,7.071,2.929l10.732,10.732L26.161,70.555L15.429,59.822z M43.839,59.948  L54.32,70.429c1.889,1.888,2.929,4.399,2.929,7.071c0,2.671-1.04,5.182-2.929,7.071c-3.899,3.899-10.243,3.898-14.142,0  L29.696,74.09L43.839,59.948z"/><text x="0" y="115" fill="#000000" font-size="5px" font-weight="bold" font-family="'Helvetica Neue', Helvetica, Arial-Unicode, Arial, Sans-serif">Created by Arthur Shlain</text><text x="0" y="120" fill="#000000" font-size="5px" font-weight="bold" font-family="'Helvetica Neue', Helvetica, Arial-Unicode, Arial, Sans-serif">from the Noun Project</text></svg>