<svg xmlns:dc="http://purl.org/dc/elements/1.1/" xmlns:cc="http://creativecommons.org/ns#" xmlns:rdf="http://www.w3.org/1999/02/22-rdf-syntax-ns#" xmlns:svg="http://www.w3.org/2000/svg" xmlns="http://www.w3.org/2000/svg" xmlns:sodipodi="http://sodipodi.sourceforge.net/DTD/sodipodi-0.dtd" xmlns:inkscape="http://www.inkscape.org/namespaces/inkscape" viewBox="0 0 559.52699 699.1363" version="1.1" x="0px" y="0px"><g transform="translate(-55.225423,-280.28605)"><path style="" d="m 343.71742,280.31115 c -3.321,-0.1492 -6.757,0.3655 -10.061,1.5757 -13.22,4.9649 -19.934,19.6891 -15.031,32.9704 l 25.092,67.2744 -64.972,42.1828 -1.575,-1.6974 c -12.412,-13.4053 -33.383,-14.2303 -46.789,-1.8178 l -34.425,31.8794 c -12.288,11.4193 -13.856,29.80876 -4.484,43.15216 l -20.123,126.5478 c -1.366,8.8128 1.961,17.744 8.727,23.5158 l 68.851,58.5467 c 4.84,4.096 10.772,6.0604 16.606,6.0604 7.262,0 14.427,-3.0118 19.515,-8.97 9.184,-10.7986 7.889,-27.0577 -2.909,-36.2427 l -57.819,-49.0922 11.394,-71.88 76.365,82.5471 135.033,171.7612 -371.279997,0 c -11.356,0 -20.607,9.1276 -20.607,20.4848 0,11.3573 9.189,20.4854 20.607,20.4854 l 518.433997,0 c 11.358,0 20.486,-9.1281 20.486,-20.4854 0,-11.3572 -9.25,-20.6063 -20.606,-20.6063 l -87.155,0 c 3.415,-9.6197 2.039,-20.586 -4.727,-29.2127 l -112.244,-142.6696 66.789,-58.9104 83.638,92.9718 c 6.083,6.7027 14.532,10.1817 22.909,10.1817 7.385,0 14.712,-2.5413 20.609,-7.8786 12.598,-11.3573 13.598,-30.7963 2.18,-43.3949 l -104.002,-115.6387 c -11.233,-12.4743 -30.614,-13.595 -43.274,-2.4241 l -48.849,43.0313 -76.002,-82.06236 74.789,-48.486 c 10.116,-6.5784 14.22,-19.1912 10.06,-30.4245 l -32.241,-86.6687 c -3.723,-9.9609 -12.946,-16.1584 -22.909,-16.6065 z m -204.246,46.5463 a 63.799577,63.799577 0 0 0 -63.759997,63.7593 63.799577,63.799577 0 0 0 63.759997,63.8797 63.799577,63.799577 0 0 0 63.879,-63.8797 63.799577,63.799577 0 0 0 -63.879,-63.7593 z" fill="#000000"/></g><text x="0" y="574.30904" fill="#000000" font-size="5px" font-weight="bold" font-family="'Helvetica Neue', Helvetica, Arial-Unicode, Arial, Sans-serif">Created by Hopkins</text><text x="0" y="579.30904" fill="#000000" font-size="5px" font-weight="bold" font-family="'Helvetica Neue', Helvetica, Arial-Unicode, Arial, Sans-serif">from the Noun Project</text></svg>