<svg xmlns="http://www.w3.org/2000/svg" xmlns:xlink="http://www.w3.org/1999/xlink" version="1.1" x="0px" y="0px" viewBox="0 0 100 125" enable-background="new 0 0 100 100" xml:space="preserve"><path d="M35.807,34.956c-4.247,0-7.702,3.455-7.702,7.701c0,4.247,3.455,7.702,7.702,7.702c4.246,0,7.701-3.455,7.701-7.702  C43.508,38.411,40.053,34.956,35.807,34.956z M35.807,47.859c-0.792,0-1.535-0.192-2.209-0.51c1.501-1.029,2.496-2.734,2.496-4.692  s-0.995-3.662-2.496-4.691c0.674-0.318,1.417-0.51,2.209-0.51c2.868,0,5.201,2.333,5.201,5.201  C41.008,45.526,38.675,47.859,35.807,47.859z M64.194,34.956c-4.247,0-7.702,3.455-7.702,7.701c0,4.247,3.455,7.702,7.702,7.702  c4.246,0,7.701-3.455,7.701-7.702C71.896,38.411,68.44,34.956,64.194,34.956z M64.194,47.859c-0.792,0-1.536-0.192-2.209-0.51  c1.5-1.029,2.495-2.734,2.495-4.692c0-1.957-0.995-3.662-2.495-4.691c0.673-0.318,1.417-0.51,2.209-0.51  c2.868,0,5.201,2.333,5.201,5.201C69.396,45.526,67.063,47.859,64.194,47.859z M47.943,60.837c-0.434,0-0.863-0.187-1.16-0.548  c-0.525-0.64-0.434-1.585,0.207-2.111l3.287-2.7l3.093,2.736c0.62,0.549,0.678,1.497,0.129,2.118  c-0.548,0.619-1.497,0.678-2.117,0.129l-1.177-1.042l-1.311,1.077C48.615,60.725,48.278,60.837,47.943,60.837z M34.951,32.655  c-4.716,0-8.094-4.382-8.235-4.569c-0.667-0.88-0.495-2.135,0.385-2.802c0.878-0.666,2.131-0.495,2.799,0.38  c0.645,0.836,2.801,2.991,5.053,2.991c0.011,0,0.021,0,0.033,0c1.512-0.014,3.014-1.013,4.463-2.969  c0.655-0.886,1.909-1.074,2.797-0.416c0.888,0.658,1.074,1.91,0.416,2.798c-2.243,3.028-4.823,4.571-7.668,4.587  C34.979,32.655,34.965,32.655,34.951,32.655z M65.979,32.655c-4.716,0-8.094-4.382-8.235-4.569c-0.667-0.88-0.495-2.135,0.386-2.802  c0.879-0.666,2.13-0.495,2.797,0.379c0.644,0.835,2.8,2.992,5.054,2.992c0.011,0,0.021,0,0.032,0  c1.513-0.014,3.014-1.013,4.464-2.969c0.656-0.886,1.909-1.074,2.797-0.416c0.888,0.658,1.074,1.911,0.416,2.798  c-2.244,3.028-4.824,4.571-7.669,4.587C66.006,32.655,65.992,32.655,65.979,32.655z M36.443,78.374  c-0.698,0-1.376-0.366-1.744-1.018c-0.542-0.962-0.203-2.182,0.759-2.725l5.6-3.16l0.368-0.054  c10.996-1.616,23.953,2.876,24.499,3.069c1.042,0.366,1.59,1.507,1.224,2.549c-0.366,1.042-1.505,1.589-2.55,1.225  c-0.123-0.043-12.284-4.254-22.229-2.936l-4.944,2.791C37.113,78.291,36.776,78.374,36.443,78.374z M50,93.465  C26.033,93.465,6.535,73.967,6.535,50S26.033,6.535,50,6.535S93.465,26.033,93.465,50S73.967,93.465,50,93.465z M50,10.535  c-21.761,0-39.465,17.704-39.465,39.465S28.239,89.465,50,89.465S89.465,71.761,89.465,50S71.761,10.535,50,10.535z"/><text x="0" y="115" fill="#000000" font-size="5px" font-weight="bold" font-family="'Helvetica Neue', Helvetica, Arial-Unicode, Arial, Sans-serif">Created by davidyu</text><text x="0" y="120" fill="#000000" font-size="5px" font-weight="bold" font-family="'Helvetica Neue', Helvetica, Arial-Unicode, Arial, Sans-serif">from the Noun Project</text></svg>